<svg xmlns="http://www.w3.org/2000/svg" version="1.1" xmlns:xlink="http://www.w3.org/1999/xlink" xmlns:svgjs="http://svgjs.dev/svgjs" width="1500" height="321" viewBox="0 0 1500 321"><g transform="matrix(1,0,0,1,-0.9090909090909918,0.7816873287996486)"><svg viewBox="0 0 396 85" data-background-color="#111111" preserveAspectRatio="xMidYMid meet" height="321" width="1500" xmlns="http://www.w3.org/2000/svg" xmlns:xlink="http://www.w3.org/1999/xlink"><g id="tight-bounds" transform="matrix(1,0,0,1,0.2400000000000091,-0.2069888565357303)"><svg viewBox="0 0 395.52 85.4136652643422" height="85.4136652643422" width="395.52"><g><svg viewBox="0 0 559.101520367336 120.73955832686195" height="85.4136652643422" width="395.52"><g transform="matrix(1,0,0,1,163.58152036733597,15.000955097797437)"><svg viewBox="0 0 395.52 90.73764813126708" height="90.73764813126708" width="395.52"><g id="textblocktransform"><svg viewBox="0 0 395.52 90.73764813126708" height="90.73764813126708" width="395.52" id="textblock"><g><svg viewBox="0 0 395.52 90.73764813126708" height="90.73764813126708" width="395.52"><g transform="matrix(1,0,0,1,0,0)"><svg width="395.52" viewBox="-0.5 -36.75 167.04 37.75" height="90.73764813126708" data-palette-color="#ffffff"><g class="wordmark-text-0" data-fill-palette-color="primary" id="text-0"><path d="M25.45-23.4L25.75-21.6 22.6-20.4Q18.05-7 15.25-0.15L15.25-0.15Q13.9 0.3 12.05 0.3L12.05 0.3 9.45 0.1 2.3-20.8-0.5-20.95-0.45-23.4 9.55-23.4 9.85-21.6 7.35-20.65 11.1-8.65 11.8-3.3 13-3.3Q15.5-10.65 18.1-20.8L18.1-20.8 15.4-20.95 15.45-23.4 25.45-23.4ZM26.25-11.8Q26.25-17.4 29.42-20.9 32.6-24.4 37.55-24.4L37.55-24.4Q42.45-24.4 45.5-20.8 48.55-17.2 48.55-11.5L48.55-11.5Q48.55-5.85 45.55-2.43 42.55 1 37.65 1L37.65 1Q32.7 1 29.47-2.6 26.25-6.2 26.25-11.8ZM40.6-2.6L40.6-2.6Q43.85-4.75 43.85-10.95L43.85-10.95Q43.85-15.4 42.2-18.35 40.55-21.3 37.15-21.3L37.15-21.3Q34.9-21.3 33.35-20.2L33.35-20.2Q31-17.4 31-12.35L31-12.35Q31-8.05 32.82-5.15 34.65-2.25 38.2-2.25L38.2-2.25Q39.35-2.25 40.6-2.6ZM69.5-2L62.7 0.75Q57.3 0.8 54.05-2.63 50.8-6.05 50.8-11.7L50.8-11.7Q50.8-17.25 54.02-20.83 57.25-24.4 62.2-24.4L62.2-24.4Q66.4-24.4 69.8-21.1L69.8-21.1 67.15-17.55Q62.75-20.95 58.55-21.25L58.55-21.25Q55.45-17.65 55.45-12.7L55.45-12.7Q55.45-8.4 57.57-5.68 59.7-2.95 63.45-2.95L63.45-2.95Q66.05-2.95 68.65-4.1L68.65-4.1 69.5-2ZM94.39-3.75L95.14-1.55 90.09 0.75Q89.34 0.65 88.19-0.43 87.04-1.5 86.54-2.7L86.54-2.7 80.89 0.7 79.69 0.75Q76.69 0.75 74.87-0.95 73.04-2.65 73.04-5.2L73.04-5.2Q73.04-8.6 76.54-10.55L76.54-10.55 86.29-10.8 86.29-15.95Q86.29-18.25 85.74-19.43 85.19-20.6 83.84-21.3L83.84-21.3Q80.79-21.2 78.19-20.45L78.19-20.45 77.79-15.25 75.14-15.05Q73.84-17.4 73.69-21.05L73.69-21.05Q75.89-22.3 79.59-23.48 83.29-24.65 84.84-24.65L84.84-24.65Q86.24-24.65 87.74-23.63 89.24-22.6 89.99-21.48 90.74-20.35 90.79-17.4L90.79-17.4 90.79-4.3Q90.79-3.3 92.09-3.3L92.09-3.3Q92.84-3.3 94.39-3.75L94.39-3.75ZM79.04-2.9L79.04-2.9Q81.99-2.8 86.29-4.75L86.29-4.75 86.29-8.2 83.79-8.35Q77.74-8.35 77.74-5.2L77.74-5.2Q77.74-3.7 79.04-2.9ZM103.64-20.3L109.54-24.05 111.44-24.25Q115.39-24.25 118.02-20.88 120.64-17.5 120.64-12.5L120.64-12.5Q120.64-6.7 116.99-2.88 113.34 0.95 107.74 0.95L107.74 0.95Q103.89 0.95 99.19-1.2L99.19-1.2 99.19-33.15 95.49-32.85 94.89-35.2Q98.24-36.65 101.69-36.75L101.69-36.75 103.64-34.95 103.64-20.3ZM109.74-2.35L111.69-2.5Q113.64-3.7 114.79-6.2 115.94-8.7 115.94-11.5L115.94-11.5Q115.94-15.05 114.19-17.6 112.44-20.15 109.79-20.15L109.79-20.15Q107.39-20.15 103.64-17.65L103.64-17.65 103.64-4.2Q106.19-2.35 109.74-2.35L109.74-2.35ZM142.44-23.15L142.44-23.15Q142.64-19.45 141.54-15.05L141.54-15.05 138.84-15.05 138.29-20.55Q134.24-18.3 131.44-14.6L131.44-14.6 131.44-3.3Q135.09-3.05 136.59-2.4L136.59-2.4 136.29 0 123.59 0 123.34-1.65 126.99-3 126.99-20.6 123.24-20.3 122.64-22.65Q125.99-24.1 129.44-24.2L129.44-24.2 131.44-22.45 131.44-17.9 136.69-23.5Q138.14-24.1 139.34-24.1L139.34-24.1Q140.94-24.1 142.44-23.15ZM144.24-11.8Q144.24-17.4 147.41-20.9 150.59-24.4 155.54-24.4L155.54-24.4Q160.44-24.4 163.49-20.8 166.54-17.2 166.54-11.5L166.54-11.5Q166.54-5.85 163.54-2.43 160.54 1 155.64 1L155.64 1Q150.69 1 147.46-2.6 144.24-6.2 144.24-11.8ZM158.59-2.6L158.59-2.6Q161.84-4.75 161.84-10.95L161.84-10.95Q161.84-15.4 160.19-18.35 158.54-21.3 155.14-21.3L155.14-21.3Q152.89-21.3 151.34-20.2L151.34-20.2Q148.99-17.4 148.99-12.35L148.99-12.35Q148.99-8.05 150.81-5.15 152.64-2.25 156.19-2.25L156.19-2.25Q157.34-2.25 158.59-2.6Z" fill="#ffffff" data-fill-palette-color="primary"></path></g></svg></g></svg></g></svg></g></svg></g><g><svg viewBox="0 0 120.73955832686195 120.73955832686195" height="120.73955832686195" width="120.73955832686195"><g><svg></svg></g><g id="icon-0"><svg viewBox="0 0 120.73955832686195 120.73955832686195" height="120.73955832686195" width="120.73955832686195"><g><path d="M0 60.37c0-33.341 27.028-60.37 60.37-60.37 33.341 0 60.37 27.028 60.37 60.37 0 33.341-27.028 60.37-60.37 60.37-33.341 0-60.37-27.028-60.37-60.37zM60.37 112.557c28.822 0 52.187-23.365 52.187-52.187 0-28.822-23.365-52.187-52.187-52.187-28.822 0-52.187 23.365-52.187 52.187 0 28.822 23.365 52.187 52.187 52.187z" data-fill-palette-color="accent" fill="#0074d9" stroke="transparent"></path><ellipse rx="59.766081371796666" ry="59.766081371796666" cx="60.36977916343098" cy="60.36977916343098" fill="#0074d9" stroke="transparent" stroke-width="0" fill-opacity="1" data-fill-palette-color="accent"></ellipse></g><g transform="matrix(1,0,0,1,28.17129580376359,29.327865326042847)"><svg viewBox="0 0 64.39696671933477 62.08382767477626" height="62.08382767477626" width="64.39696671933477"><g><svg xmlns="http://www.w3.org/2000/svg" xmlns:xlink="http://www.w3.org/1999/xlink" version="1.1" x="0" y="0" viewBox="0 1.796 100 96.40799999999999" enable-background="new 0 0 100 100" xml:space="preserve" height="62.08382767477626" width="64.39696671933477" class="icon-cg-0" data-fill-palette-color="quaternary" id="cg-0"><polygon points="66.744,76.101 66.744,90.788 7.416,90.788 7.416,9.212 66.744,9.212 66.744,23.668 74.16,16.252 74.16,1.796   0,1.796 0,98.204 74.16,98.204 74.16,68.685 " fill="#ffffff" data-fill-palette-color="quaternary"></polygon><polygon points="52.81,74.305 37.08,79.547 42.323,63.818 89.513,16.628 100,27.115 " fill="#ffffff" data-fill-palette-color="quaternary"></polygon></svg></g></svg></g></svg></g></svg></g></svg></g><defs></defs></svg><rect width="395.52" height="85.4136652643422" fill="none" stroke="none" visibility="hidden"></rect></g></svg></g></svg>